# xmcd CD database file
#
# Track frame offsets:
#	150
#	16980
#	36408
#	55897
#	77292
#	95705
#	116668
#	139741
#	159751
#	178387
#	198465
#	215245
#	233896
#	256457
#	278470
#	303550
#	326390
#
# Disc length: 4613 seconds
#
# Revision: 2
# Processed by: cddbd v1.5.2PL0 Copyright (c) Steve Scherf et al.
# Submitted via: CDex 1.51
#
DISCID=ef120311
DTITLE=吉川晃司 - KEEP ON KICKIN' !!!!!～吉川晃司入門ベストアルバム
DYEAR=2011
DGENRE=Rock
TTITLE0=The Gundogs ～Dobermann Mix～
TTITLE1=アクセル
TTITLE2=KISSに撃たれて眠りたい
TTITLE3=サバンナの夜 -album mix-
TTITLE4=終わらないSun Set
TTITLE5=ONE WORLD -album mix-
TTITLE6=Black Corvette '98
TTITLE7=エロス
TTITLE8=SPEED
TTITLE9=Fame and Money
TTITLE10=傷だらけのダイヤモンド -AL Ver.-
TTITLE11=ナイフ
TTITLE12=Juicy Jungle -album mix-
TTITLE13=せつなさを殺せない
TTITLE14=この雨の終わりに
TTITLE15=BOY'S LIFE
TTITLE16=真夜中のストレンジャー
EXTD=YEAR: 2011
EXTT0=
EXTT1=
EXTT2=
EXTT3=
EXTT4=
EXTT5=
EXTT6=
EXTT7=
EXTT8=
EXTT9=
EXTT10=
EXTT11=
EXTT12=
EXTT13=
EXTT14=
EXTT15=
EXTT16=
PLAYORDER=
